<svg xmlns="http://www.w3.org/2000/svg" viewBox="0 0 512 512" role="img" aria-labelledby="title desc">
  <title id="title">North Star Tech Challenge</title><desc id="desc">An abstract north star connected to circuit nodes</desc>
  <defs><linearGradient id="bg" x1="0" y1="0" x2="1" y2="1"><stop stop-color="#07182f"/><stop offset="1" stop-color="#10395b"/></linearGradient><linearGradient id="ray" x1="0" y1="0" x2="1" y2="1"><stop stop-color="#77f2d0"/><stop offset=".55" stop-color="#9ddcff"/><stop offset="1" stop-color="#f7f1df"/></linearGradient></defs>
  <rect width="512" height="512" rx="112" fill="url(#bg)"/>
  <g fill="none" stroke="#77f2d0" stroke-width="15" stroke-linecap="round" stroke-linejoin="round" opacity=".92"><path d="M256 105v-38M256 407v38M105 256H67M407 256h38"/><path d="M165 165l-36-36M347 165l36-36M165 347l-36 36M347 347l36 36"/></g>
  <g fill="#f45b69"><circle cx="67" cy="256" r="14"/><circle cx="445" cy="256" r="14"/><circle cx="256" cy="67" r="14"/></g>
  <path d="M256 112l34 108 110 36-110 36-34 108-34-108-110-36 110-36z" fill="url(#ray)"/>
  <circle cx="256" cy="256" r="29" fill="#07182f"/><circle cx="256" cy="256" r="11" fill="#f7f1df"/>
</svg>
