<svg xmlns="http://www.w3.org/2000/svg" viewBox="0 0 512 512">
  <defs>
    <linearGradient id="g" x1="0" x2="1" y1="1" y2="0">
      <stop stop-color="#df7f50"/>
      <stop offset=".42" stop-color="#f6c453"/>
      <stop offset=".72" stop-color="#e99ba6"/>
      <stop offset="1" stop-color="#8bb8d8"/>
    </linearGradient>
    <filter id="s" x="-20%" y="-20%" width="140%" height="140%"><feDropShadow dx="0" dy="18" stdDeviation="18" flood-color="#8b4b2c" flood-opacity=".28"/></filter>
  </defs>
  <rect width="512" height="512" rx="120" fill="#fff9f4"/>
  <circle cx="122" cy="106" r="54" fill="#f6c453" opacity=".38"/>
  <circle cx="406" cy="128" r="68" fill="#e99ba6" opacity=".28"/>
  <path filter="url(#s)" d="M256 408s-21-17-54-43C104 287 68 249 68 185c0-58 43-103 100-103 34 0 64 16 88 48 24-32 54-48 88-48 57 0 100 45 100 103 0 64-36 102-134 180-33 26-54 43-54 43Z" fill="url(#g)"/>
  <circle cx="197" cy="198" r="18" fill="#fffaf6"/>
  <circle cx="315" cy="198" r="18" fill="#fffaf6"/>
  <path d="M186 276c17 23 40 35 70 35s53-12 70-35" fill="none" stroke="#fffaf6" stroke-width="26" stroke-linecap="round"/>
</svg>
